<svg width="124" height="32" viewBox="0 0 124 32" fill="none" xmlns="http://www.w3.org/2000/svg">
<g clip-path="url(#clip0_10_1597)">
<path d="M26.1446 4.91561H33.5105V3.92791H26.1446V1.08544H33.8091V0.0977433H24.9118V9.00966H33.8627V8.02573H26.1484V4.91561H26.1446ZM23.0435 0.127902L23.0205 0.0977433H21.0221L15.3445 3.88267H13.8054V0.0977433H12.5841V9.00966H13.8054V4.86283H15.2411L21.4547 9.00966H23.6025L23.6331 8.98705L16.5543 4.38029L23.0435 0.127902ZM7.0214 3.98823H3.4035C1.4931 3.98823 1.15237 3.63009 1.15237 2.57453C1.15237 1.10806 1.9908 0.983658 4.34913 0.983658H5.65081C8.86671 0.983658 9.02368 1.24378 9.04282 2.65747H10.1952V2.34834C10.1952 0.761237 9.4295 -0.00404265 6.3897 -0.00404265H3.74806C1.22511 -0.000272803 0 0.455879 0 2.4916C0 4.85152 1.22511 5.07394 4.96551 5.07394H7.29322C8.82077 5.07394 9.2687 5.35668 9.2687 6.47633C9.2687 7.75808 8.7442 8.12752 6.9678 8.12752H3.16231C1.63475 8.12752 1.16002 7.7053 1.16002 6.83069V6.2049H0.0153138V6.85708C0.0153138 8.80232 1.58498 9.11145 3.37287 9.11145H6.77637C8.59107 9.11145 10.4134 8.95312 10.4134 6.76284V6.18605C10.4134 4.67434 9.41418 3.992 7.0214 3.992V3.98823ZM45.2524 6.57434C45.2524 7.78069 44.77 8.12375 43.1276 8.12375H38.8397C37.6606 8.12375 36.7073 7.77692 36.7073 6.22752V2.88366C36.7073 1.33425 37.6606 0.987427 38.8397 0.987427H43.0855C44.2111 0.987427 45.1643 1.06282 45.1643 2.5783V2.98545H46.2363V2.22394C46.2363 1.02513 45.6199 0.00349704 43.4033 0.00349704H38.7096C36.2555 0.00349704 35.486 1.08921 35.486 3.34358V5.7789C35.486 8.03327 36.2593 9.11522 38.7096 9.11522H43.3343C45.8764 9.11522 46.3971 8.24062 46.3971 6.62712V6.02771H45.2486V6.58188L45.2524 6.57434ZM57.7829 3.92414H49.5977V0.0977433H48.3764V9.00966H49.5977V4.91561H57.7829V9.01343H59.0081V0.0977433H57.7829V3.92791V3.92414ZM62.6336 4.91184H69.9957V3.92414H62.6336V1.08544H70.2944V0.0977433H61.4085V9.00966H70.3441V8.02573H62.6374V4.91561L62.6336 4.91184ZM91.3471 3.98446H87.7215C85.8073 3.98446 85.4666 3.62632 85.4666 2.57076C85.4666 1.10429 86.3088 0.979888 88.671 0.979888H89.9688C93.1809 0.979888 93.3264 1.24001 93.3608 2.6537H94.5094V2.34457C94.5094 0.757467 93.7437 -0.0078125 90.7077 -0.0078125H88.0737C85.5431 -0.0078125 84.318 0.448339 84.318 2.48406C84.318 4.84398 85.5393 5.0664 89.2835 5.0664H91.6112C93.1388 5.0664 93.5829 5.34914 93.5829 6.46879C93.5829 7.75054 93.0584 8.11998 91.2858 8.11998H87.4841C85.9528 8.11998 85.4819 7.69776 85.4819 6.82315V6.19736H84.3333V6.84954C84.3333 8.79478 85.9107 9.10391 87.6985 9.10391H91.102C92.9206 9.10391 94.7429 8.94558 94.7429 6.7553V6.17851C94.7429 4.6668 93.736 3.98446 91.3547 3.98446H91.3471ZM79.3793 0.0977433H72.1358V9.00966H73.3571V5.4924H79.3372C80.4436 5.4924 81.1366 5.66581 81.1366 7.05311V9.00966H82.2889V6.73268C82.2889 5.91839 81.9941 5.28128 80.7384 5.05886V5.03247C81.6764 4.94577 82.4076 4.60271 82.4076 3.35112V2.61977C82.4076 0.945959 81.9941 0.0939734 79.3793 0.0939734V0.0977433ZM81.1787 3.21541C81.1787 4.15033 80.6044 4.5047 79.2376 4.5047H73.361V1.08544H78.939C80.7422 1.08544 81.1787 1.40588 81.1787 2.40112V3.21541Z" fill="#fff"/>
<path d="M40.8804 17.9325H35.2182C32.6646 17.9325 32.186 19.2557 32.186 21.4121V23.2782C32.186 25.8002 32.6646 26.7577 34.9502 26.7577H41.1446C43.4302 26.7577 43.9088 25.8002 43.9088 23.2782V21.4121C43.9088 19.252 43.4302 17.9325 40.8843 17.9325H40.8804ZM89.521 23.7833C89.521 26.1621 88.7439 27.097 86.6038 27.097H81.4315C79.2914 27.097 78.5142 26.1659 78.5142 23.7833V12.9639H73.2922V25.0236C73.2922 29.6794 75.4821 31.9036 80.2753 31.9036H87.7523C92.5417 31.9036 94.7354 29.6794 94.7354 25.0236V12.9639H89.5172V23.7833H89.521ZM116.194 12.9639V26.5768H116.148L106.343 12.9639H98.2576V31.7H103.476V18.0909H103.526L113.326 31.7H121.416V12.9676H116.194V12.9639ZM64.6743 12.9639L0.0078125 12.994V31.7H54.1384V26.8369H62.3466C63.9661 26.8369 64.4829 27.4816 64.4829 29.4532V31.7H69.7049V28.5183C69.7049 25.4383 68.4147 24.6881 66.8604 24.3752V24.3262C69.2608 23.7079 69.7738 22.2264 69.7738 19.7194V18.5282C69.7738 15.1655 68.6942 12.9639 64.6705 12.9639H64.6743ZM24.6363 25.9925C24.6363 30.98 22.2818 31.2175 16.8339 31.2175H11.0146C6.65785 31.2175 4.06598 30.0224 4.06598 24.9369V19.7571C4.06598 14.6754 6.65785 13.4766 11.0146 13.4766H18.2925C23.7825 13.4766 24.5444 15.6593 24.5444 19.0371V19.5913H19.7971C19.7971 17.8609 18.9013 17.6498 17.3584 17.6498H12.1057C9.66319 17.6498 9.03915 18.2944 9.03915 21.2688V23.4252C9.03915 26.4034 9.66319 27.048 12.1057 27.048H17.2703C18.5337 27.048 19.801 26.8369 19.801 25.1518V24.6504H13.7864V21.0502H24.6401V25.9925H24.6363ZM48.8781 24.9369C48.8781 30.0224 46.2862 31.2175 41.9256 31.2175H34.173C29.8124 31.2175 27.2167 30.0224 27.2167 24.9369V19.7571C27.2167 14.6754 29.8085 13.4766 34.173 13.4766H41.9256C46.2862 13.4766 48.8781 14.6754 48.8781 19.7571V24.9369ZM64.7011 20.2133C64.7011 21.5591 64.1881 22.1811 62.7754 22.1811H54.1461V17.6309H62.3083C63.9508 17.6309 64.7011 17.9401 64.7011 19.595V20.2171V20.2133Z" fill="#fff"/>
<path d="M122.094 13.9221C122.094 13.4056 122.519 12.9834 123.047 12.9834C123.575 12.9834 124 13.4056 124 13.9221C124 14.4386 123.572 14.8608 123.047 14.8608C122.523 14.8608 122.094 14.4386 122.094 13.9221ZM123.82 13.9221C123.82 13.4999 123.476 13.1606 123.047 13.1606C122.618 13.1606 122.274 13.4999 122.274 13.9221C122.274 14.3443 122.618 14.6836 123.047 14.6836C123.476 14.6836 123.82 14.3443 123.82 13.9221ZM123.522 14.431H123.288L123.059 14.005H122.856V14.431H122.653V13.4207H123.15C123.238 13.4207 123.353 13.4207 123.43 13.4659C123.522 13.5263 123.549 13.6243 123.549 13.7298C123.549 13.9146 123.453 13.9937 123.269 14.005L123.518 14.431H123.522ZM123.158 13.8505C123.273 13.8505 123.353 13.8241 123.353 13.6997C123.353 13.564 123.208 13.564 123.108 13.564H122.859V13.8505H123.162H123.158Z" fill="#ddd"/>
</g>
<defs>
<clipPath id="clip0_10_1597">
<rect width="124" height="31.9118" fill="white"/>
</clipPath>
</defs>
</svg>
